<svg version="1.2" xmlns="http://www.w3.org/2000/svg" viewBox="0 0 88 88" width="88" height="88"><style>.a{fill:#fff}.b{fill:#f16f21}</style><path class="a" d="m44 87.9c-24.3 0-43.9-19.6-43.9-43.9 0-24.3 19.6-43.9 43.9-43.9 24.3 0 43.9 19.6 43.9 43.9 0 24.3-19.6 43.9-43.9 43.9z"/><path fill-rule="evenodd" class="b" d="m26.3 48.2c0.2-1.1 0.8-1.8 1.6-2.6q2.6-2.6 5.2-5.2c0.6-0.6 1-0.6 1.6 0q6.7 6.6 13.3 13.2c0.6 0.6 0.6 1 0 1.6q-2.7 2.6-5.3 5.3c-0.7 0.7-1.5 1.4-2.6 1.5q-0.3 0-0.7 0c-0.8-0.1-1.5-0.5-2.1-1.1q-3.1-3-6.1-6c-0.4-0.5-0.5-0.8-0.2-1.3q0.7-1.2 1.4-2.5c0 0 0-0.1 0.1-0.3-0.2 0.1-0.3 0.2-0.4 0.2q-1.2 0.7-2.4 1.3c-0.4 0.2-0.7 0.3-1 0-1-1-2.2-1.8-2.4-3.3q0-0.4 0-0.8zm37-17.6c-0.1 1.6-0.8 3.1-2.3 4.2q-4.3 3-8.6 6c-0.9 0.6-1.1 1.7-0.6 2.6q0.2 0.3 0.5 0.5 0.7 0.8 1.4 1.5c1.6 1.5 1.6 4.1 0 5.5q-1.1 1.2-2.2 2.3c-0.6 0.6-1 0.6-1.6 0q-2.9-2.9-5.9-5.9-4.4-4.4-8.8-8.8c-0.6-0.6-0.6-1 0-1.7 0.8-0.7 1.5-1.4 2.2-2.1 1.5-1.6 4.1-1.6 5.6 0q0.7 0.7 1.4 1.4c1.1 1 2.4 0.9 3.3-0.3q2.9-4.2 5.9-8.4c1.1-1.6 2.6-2.3 4.5-2.3 2.9 0.1 5.2 2.5 5.2 5.5zm-5.1-2.1c-0.9 0-1.6 0.7-1.6 1.6 0 0.9 0.7 1.7 1.7 1.7 0.9 0 1.6-0.8 1.6-1.7 0-0.9-0.7-1.7-1.7-1.6z"/></svg>