<svg version="1.2" xmlns="http://www.w3.org/2000/svg" viewBox="0 0 88 88" width="88" height="88"><style>.a{fill:#fff}.b{fill:#f16f21}</style><path class="a" d="m44 88c-24.3 0-44-19.7-44-44 0-24.3 19.7-44 44-44 24.3 0 44 19.7 44 44 0 24.3-19.7 44-44 44z"/><path class="b" d="m48.7 47.6c1.7 0.7 3.2 1.7 4.4 3 1 1.1 1.9 2.2 2.2 3.7 0.5 2.6-1.7 5.5-4.5 5.7q-1.1 0-2.3 0-5.2 0-10.5 0c-1.3 0-2.6-0.3-3.6-1.2-1.9-1.7-2.3-4.3-1-6.3q2-3.2 5.6-4.8 0.1-0.1 0.3-0.2c-1.7-1.7-2.5-3.7-2.2-6.1 0.3-1.6 1.2-3 2.5-4.1 2.7-2.2 6.8-2 9.3 0.4 2.5 2.4 3 6.8-0.2 9.9zm-14.6-17.6q0.6 0.1 1.1 0.3c2 0.5 3.4 1.7 4.4 3.5q-0.2 0.1-0.4 0.2c-3.5 1.9-5.4 5.9-4.7 9.7 0.2 0.8 0.5 1.5 0.7 2.3 0.1 0.2 0.1 0.3-0.1 0.5-1.8 1.3-3.3 2.9-4.3 4.8q-0.7 1.2-0.8 2.6c0 0.1-0.2 0.3-0.2 0.3-1.2 0-2.4 0.1-3.6-0.1-2.1-0.3-3.7-1.8-4.1-3.9q0-0.1-0.1-0.3 0-0.6 0-1.2c0.2-0.5 0.3-1.1 0.5-1.5 1.1-2.1 2.8-3.6 4.8-4.8q0.7-0.3 1.4-0.6-0.3-0.3-0.5-0.5c-3.4-3.7-1.7-9.5 3.1-11 0.5-0.1 0.9-0.2 1.4-0.3q0.7 0 1.4 0zm21.2 0c0.5 0.1 1 0.2 1.4 0.3 4.9 1.6 6.5 7.3 3 11q-0.2 0.2-0.4 0.5 0.3 0.1 0.5 0.2c2.4 1.1 4.4 2.8 5.6 5.1 1.7 3.1-0.6 7-4.2 7.1-1 0-1.9 0-2.8 0-0.2 0-0.4 0-0.4-0.3-0.1-1.7-0.9-3.1-2-4.5q-1.3-1.7-3.1-2.9c-0.2-0.1-0.2-0.3-0.1-0.5 2.1-4.5 0.2-9.8-4.2-12.1q-0.1-0.1-0.2-0.1 0.9-1.8 2.5-2.8 1.3-0.7 2.8-0.9 0.1-0.1 0.2-0.1 0.7 0 1.4 0z"/></svg>