<svg xmlns="http://www.w3.org/2000/svg" viewBox="0 0 726.1 162.26"><defs><style>.cls-1{fill:#380606;}.cls-2{fill:#ee782d;}</style></defs><g id="レイヤー_2" data-name="レイヤー 2"><g id="レイヤー_1-2" data-name="レイヤー 1"><path class="cls-1" d="M98.3,116.69c-8.13-4.28-9.09-4.81-11.23-6.31V68.77c0-5.88-2.68-7.91-8.88-7.91-7.17,0-7.49,5.24-7.49,7.91V95.19c-2.67-3.53-3.85-5-7-5A8.07,8.07,0,0,0,59,91.66a68.2,68.2,0,0,0,.65-7.38c0-7.38-3.11-10.91-10.17-10.91H32.09a40.44,40.44,0,0,0,1.07-7c0-5.56-6.63-6.1-8.24-6.1-5.24,0-6.52,2.78-7.16,5.56C15.4,75.51,13.26,84.82,7,94.66.43,104.92,0,105.57,0,108.24c0,5.13,5.13,8.34,8.77,8.34,2.89,0,4.6-1.81,6.63-4.7a177.78,177.78,0,0,1,15.73,13.05,64.1,64.1,0,0,1-21,19.79c-3.31,1.92-6.63,3.74-6.63,8.23s3.85,9.2,8.77,9.2c5.56,0,17.65-9.73,24.5-17.54,4-4.49,14.44-16.79,20.32-42.79A97.64,97.64,0,0,0,70.7,118.08v36.26c0,5.78,2.36,7.92,8.77,7.92,7.06,0,7.6-5,7.6-7.92V130.7c5.67,3.64,7.06,3.64,8.13,3.64,4.92,0,8.66-5.13,8.66-10C103.86,120.22,101.72,118.51,98.3,116.69Zm-59.69-6.84C32,104.6,27.92,101.5,23.21,98.29a80.21,80.21,0,0,0,4.39-9.94H41.18c1.82,0,2.25,1,2.25,1.92C43.43,95.62,40.54,105,38.61,109.85Z"/><path class="cls-1" d="M201.63,146.21H166.76v-5.56h28.45c1.82,0,6.63-.11,6.63-6.52s-4.92-6.53-6.63-6.53H166.76c0-3.42-.64-6.63-8.24-6.63a18.63,18.63,0,0,0-3.31.32c1-1.28,1.49-2.67,1.49-8V104.5c0-8.88-1.71-10.59-10.69-10.59h-9.63c-5.56,0-7.59.53-9.31,2.78.11-2.68.11-4.17.11-6.74H146c9.09,0,10.69-1.71,10.69-10.59V73.48c0-9-1.81-10.48-10.69-10.48H126.65c-10.59,0-13.27,2.24-13.27,12.83V89.74c0,6.84-1.07,15.72-4.06,22.67-1.28,3-1.5,3.85-1.5,5.14,0,4.92,5.35,6.74,8.24,6.74,4.06,0,7.16-2.14,9.52-15.51v4.49c0,8.88,1.82,10.59,10.8,10.59H146a22.59,22.59,0,0,0,5.45-.43,6.55,6.55,0,0,0-1,4.17H122.37c-1.93,0-6.74.11-6.74,6.53s5,6.52,6.74,6.52H150.5v5.56H115.74c-2.78,0-7.81.65-7.81,6.85,0,6.63,6.31,6.63,7.81,6.63h85.89c2.78,0,7.81-.64,7.81-6.74C209.44,146.21,203.13,146.21,201.63,146.21ZM127.29,77c0-1.61.85-2,2-2h11.77c1.39,0,1.92.74,1.92,1.81v1.5a1.67,1.67,0,0,1-1.92,1.82h-13.8Zm17.11,34a1.8,1.8,0,0,1-2,2H139c-1.39,0-2.14-.64-2.14-2v-4.17c0-1.39.75-2,2.14-2h3.42a1.81,1.81,0,0,1,2,2Z"/><path class="cls-1" d="M204.09,86.53h-5.46c.43-1,1.5-3.75,2.46-6.74,3.21-.11,6.64-.32,6.64-5.67,0-4-.75-6.74-7-6.74h-9.84V64.92c0-2.89-1.92-4.39-7.27-4.39-5.14,0-7.81,1-7.81,4.39v2.46H165.9c-4.28,0-7.06,1.28-7.06,6.1,0,5.13,1.93,6.31,7.38,6.31q1,3.36,1.93,6.74h-5.78c-3.85,0-5.24,2.78-5.24,6.2,0,4.71,2.14,6.31,5.88,6.31h12.84v5.67H165.47c-1.6,0-6.09.11-6.09,5.88,0,4.39,1.6,6.53,6.09,6.53h10.06v4.17c0,2.25,1.39,5.56,7.06,5.56,4.6,0,8.34-1.39,8.34-5.56v-4.17H201.2c1.71,0,6.1-.21,6.1-5.88,0-4.07-1.29-6.53-6.1-6.53H190.93V99h12.84c2.46,0,5.77-.64,5.77-5.77C209.54,90.38,209.22,86.53,204.09,86.53Zm-18.19,0h-4.7c-.64-2.25-1.82-6.74-1.93-6.74H188A39.61,39.61,0,0,1,185.9,86.53Z"/><path class="cls-1" d="M221.52,72.51c1.29.86,8,4.18,9.52,5,4.07,2.25,4.6,2.46,6.32,2.46,3.63,0,6.41-4.28,6.41-7.91,0-2.68-1.28-4.28-7.27-7.17-5.67-2.78-8.66-4-10.91-4-3.53,0-6.31,3.43-6.31,7.38A4.52,4.52,0,0,0,221.52,72.51Z"/><path class="cls-1" d="M219.06,91.88c.86.53,5.35,2.67,6.32,3.2,5.45,2.89,6.09,3.21,7.7,3.21,3.95,0,6.2-4.6,6.52-7,.54-3.85-2.24-5.56-5.88-7.49-2.89-1.49-9.31-4.6-12.3-4.6-3.53,0-6.42,3.32-6.42,7.28C215,89.52,216.28,90.27,219.06,91.88Z"/><path class="cls-1" d="M246.88,127.6c2.13,0,4-.43,9.41-5.24s5.88-7.06,5.88-8.88c0-3.63-3.64-6.52-7.06-6.52-2.24,0-3.42,1.07-5.88,3.31a38.62,38.62,0,0,1-4.49,3.75c-3.64,2.67-4.92,3.63-4.92,6.52A7.17,7.17,0,0,0,246.88,127.6Z"/><path class="cls-1" d="M234.25,100.54a6.58,6.58,0,0,0-5.77,3.21c-2.89,3.85-3.75,5-7.28,9.09-5.13,5.78-5.24,6-5.24,8.45a8,8,0,0,0,7.92,8,6.2,6.2,0,0,0,4.7-2,77.66,77.66,0,0,0,6.74-7.81c2.25-3,6.31-9.2,6.31-12C241.63,103.75,237.46,100.54,234.25,100.54Z"/><path class="cls-1" d="M312.23,116.37c-1.07-1-7-4.92-8.13-6-3.1-2.67-4-3.32-6.1-3.32-3.31,0-7.8,2.57-7.8,7,0,2.56,2.14,4.6,6.2,8,5.13,4.28,7.59,6,10.38,6,3.85,0,7.38-3.85,7.38-7.7A5.28,5.28,0,0,0,312.23,116.37Z"/><path class="cls-1" d="M309.88,146.21H274.15v-4.06h28.24c1.71,0,6.52,0,6.52-6.1,0-5.56-4-6.09-6.52-6.09H274.15a5.44,5.44,0,0,0-.75-3.54c10.91-.1,12.62-2.67,12.62-13.26v-6.74h21.4c1.6,0,6.52,0,6.52-6.2,0-5.88-4.06-6.31-6.52-6.31H286V90.06h8.45c2,0,4.92-.22,6.1-3.32,5.88,2.68,7.28,3,8.77,3,4.28,0,7-4,7-7.92s-1.82-5-4.18-6c-10.91-4.28-14.12-5.56-21.39-10.59-5.13-3.53-7-4.71-11.66-4.71s-6.95,1.61-10.37,4c-7.38,5.24-10.59,6.53-21.93,11.23-2.78,1.18-5.14,2.14-5.14,6.42s3.11,7.92,7,7.92c1.82,0,3.85-.75,8.77-3,1.5,3,4.38,3,5.88,3h7.81v3.85H250.3c-1.5,0-6.63,0-6.63,6.2s5,6.31,6.63,6.31h20.75V112c0,2.13-1.07,2.13-3.1,2.13-3.21,0-7.17,0-7.17,5.89a8.92,8.92,0,0,0,1.28,4.7c-3.1.43-4.49,1.5-4.49,5.25H229.44c-1.5,0-6.63,0-6.63,6.09s5.13,6.1,6.63,6.1h28.13v4.06H221.85c-1.72,0-6.85,0-6.85,6.63s5,6.74,6.85,6.74h88c1.92,0,6.74,0,6.74-6.63C316.62,146.64,312.55,146.21,309.88,146.21ZM277.15,74.65a2.3,2.3,0,0,1,3.74-.21,36.89,36.89,0,0,0,5.88,4.6H271.58A45.27,45.27,0,0,0,277.15,74.65Z"/><path class="cls-1" d="M328.17,105.89c3.1,0,7.59-1.5,17.11-4.6v1.6c0,5,1.82,8,8.45,8,7.49,0,7.49-6,7.49-8V68.13c0-6.1-2.57-7.81-8.66-7.81-6.53,0-7.28,4.49-7.28,7.81V85.78a141.23,141.23,0,0,1-13.79,3.64c-6.74,1.39-9.95,2.56-9.95,8.66C321.54,99.47,321.86,105.89,328.17,105.89Z"/><path class="cls-1" d="M335.87,84.71c3.32,0,8.67-3.1,8.67-8.13,0-1.93-.75-3.74-5.35-9.09-4.07-4.82-5.46-4.92-7.92-4.92-3.21,0-8.34,3.21-8.34,7.59,0,1.93.53,2.68,4.81,8.24C331.16,83,332.45,84.71,335.87,84.71Z"/><path class="cls-1" d="M415.67,84.28c2.46,0,7.7-.21,7.7-7.06,0-5.45-1.82-8.24-7.7-8.24H401.44V66.31c0-5.24-4.92-6-7.7-6-4.28,0-8.88.86-8.88,6V69H371c-2.57,0-7.81.33-7.81,7.17,0,5.46,1.82,8.13,7.81,8.13h13.9v7.38h-10.7c-1.81,0-7.7,0-7.7,7,0,4.39,1.29,5.35,2.68,6.31-3.53.86-4.82,3.21-4.82,5.67v2H329.67c-2.36,0-7.7.21-7.7,7,0,5.78,3.53,7.17,7.7,7.17h20.75a70.78,70.78,0,0,1-16.15,5.56c-9.42,1.82-12.41,2.35-12.41,7.49,0,1,.11,8.45,6.42,8.45,3.63,0,13.26-2.89,22.89-7.06v6.41c-2.25.22-12.2.65-14.12,1.18s-4.17,1.82-4.17,5.88c0,3.32,1.6,7.28,6.63,7.28,5.67,0,39.36-3,42.57-4.07s4-4.06,4-6.2c0-1.07-.11-6.95-6.63-6.95-.65,0-9.1,1.07-10.81,1.17-.75.11-1.82.22-2,.22v-13.8a63.38,63.38,0,0,0,6.1-5.14,53.72,53.72,0,0,0,22.14,26.53C397,155,408.61,162,414.6,162c6.41,0,8.13-7.06,8.13-9.41,0-4.49-3.32-5.67-6-6.63-3.32-1.18-8.67-3.1-10.06-3.74a49.78,49.78,0,0,0,7.6-5.35,4.83,4.83,0,0,0,2-3.85c0-2-1.29-4.5-4.07-6.31h3.32c2.25,0,7.7-.11,7.7-7.06,0-5.78-3.74-7.06-7.7-7.06H381.44v-2a5.28,5.28,0,0,0-2.14-4.49h33.48c1.82,0,7.81,0,7.81-6.84,0-5.35-2.57-7.6-7.81-7.6H401.44V84.28ZM403,126.75c-.64.42-2.88,2.24-4.27,3.31a49.66,49.66,0,0,1-5,3.53,43,43,0,0,1-5.88-6.84Z"/><path class="cls-1" d="M604.9,121c0-3-1.61-4.81-7.28-9.2-3.31-2.57-7-5.35-12.3-8.88,6.85,0,12.2,0,13.91-10,4.81-.21,6.95-2.35,6.95-7.27V81.61c0-10.7-5.56-13.27-14.23-13.27H564.79V66.42c0-4.71-3.32-5.89-8.78-5.89-4.81,0-7.38,1.82-7.38,5.89v1.92H521.79c-8.88,0-14.23,2.68-14.23,13.27V86c0,5.14,2.35,7.38,8.13,7.38,5.13,0,7.38-2.78,7.38-7.16v-3c0-1.5.75-2.14,2.25-2.14h10.91c-2.89,8.77-11.45,11.23-18.83,13.27-1.28.32-4.81,1.28-4.81,5.45a10.18,10.18,0,0,0,2,6,6,6,0,0,0,5.13,2.14c4.07,0,11.13-2.57,17.55-6.52-1.39,1.81-6.64,9.19-7.6,10.48-1.82,0-13.9,0-14.55.1-1.39.11-6.09.75-6.09,6.74,0,6.85,5.56,6.85,7.7,6.85.85,0,26.85-.64,28.13-.64a7.4,7.4,0,0,0-1,3.53c0,3.21,1.28,3.85,6.52,6.84,9.31,5.35,10.38,5.89,12.73,5.89,4.6,0,6.85-4.92,6.85-7.92,0-3.85-2.14-4.92-9.84-8.88,10.59-.43,19.14-.75,26.2-1.5,1.29,1.29,2.14,2,3.64,3.43-3,.43-8,2.56-8,7.06a9.86,9.86,0,0,0,1.6,4.92A92.72,92.72,0,0,1,590.24,151c2,4.81,3.21,7.59,7.92,7.59s9.41-3.32,9.41-7.59c0-4.07-5.56-15.19-10.27-21.5A9.08,9.08,0,0,0,604.9,121Zm-56.48-9.2c1.07-1.28,3.32-4.49,5-6.74,1.07-1.39,2.35-3.21,2.35-5.24,0-3.74-4.28-7.06-9.52-6.63a34.06,34.06,0,0,0,5.35-12.09h7.81v9.52c0,8,.75,11.87,10.37,12.3a7,7,0,0,0-1,3.43,6.07,6.07,0,0,0,2.89,5.13C564.46,111.77,553.88,111.77,548.42,111.77Zm29.2-20.64c-3.31,0-3.53-.65-3.53-2.36v-7.7H588c2.24,0,2.24,1.39,2.24,2.89-3.74.43-4.28,2.25-4.92,4.92C584.79,91.13,583.93,91.13,577.62,91.13Z"/><path class="cls-1" d="M581.79,139.47a12.17,12.17,0,0,0-6.84-1.71c-5.56,0-6.1,3.11-6.53,5.67-.53,3.21-1.07,3.21-7.06,3.21-9,0-10.05-.11-11.66-.11-1.81-.1-2.78-.42-2.78-3v-6.2c0-3.64-.85-7-8.55-7s-7.6,4.92-7.6,7V151c0,6.09,4.28,9.09,8.56,9.73,2.57.43,21.6.53,25.67.53,11.23,0,12.41-.74,14.23-2.13,4.81-3.53,5.34-12.63,5.34-14C584.57,142.68,583.83,140.76,581.79,139.47Z"/><path class="cls-1" d="M520.29,127.49c-5.35,0-6.53,2.47-7.49,5.46-1.5,4.39-2.57,7.49-4.28,11.44-2.24,5.46-2.56,6.1-2.56,7.81,0,3.75,4.59,6.74,9.09,6.74,4.92,0,6.52-3,9-9.09,3.75-9.41,4.28-14.44,4.28-15.83C528.31,129.21,522.75,127.49,520.29,127.49Z"/><path class="cls-1" d="M467.87,88.82c-18.74,0-37.47,11.69-37.47,36.7,0,11.53,4.8,22.91,16,22.91,5.89,0,10.45-3.1,14.56-9.52,5.49-8.52,9.75-25.32,11.38-38.4,8.28.78,15.94,6.74,15.94,20,0,18.66-13.62,20.67-20.12,21.68-2.56.38-6,.92-6,5.88,0,.85.15,6.35,6.19,6.35s32.9-4.26,32.9-33.21C501.23,103.14,490.62,88.82,467.87,88.82Zm-13.63,36.77c-1.7,4.65-3.95,9.52-7.12,9.52-2.4,0-4.8-3.17-4.8-9.52,0-5.18,1.4-20.28,18-24.77A116.26,116.26,0,0,1,454.24,125.59Z"/><path class="cls-1" d="M711.82,130.16a6.45,6.45,0,1,0-6.45-6.45A6.45,6.45,0,0,0,711.82,130.16Z"/><path class="cls-1" d="M724.17,89.21l-17.32-6.6c-.15-10.93-5.26-14.16-14.53-14.16H631.24c-9.3,0-14.65,3.1-14.65,14.65v61.4c0,11.55,5.35,14.66,14.65,14.66h61.08c5.56,0,9.62-1.18,12-4.46L722,161.44a3,3,0,0,0,1.06.2,3,3,0,0,0,3-3V92A3,3,0,0,0,724.17,89.21Zm-37.92,20.45a14,14,0,0,0-7.66-1.34,9.29,9.29,0,1,0-5.43,1.75l.43,0A15.87,15.87,0,0,0,669,114.4l-15.29-2.14a3.5,3.5,0,1,0-1,6.93l16,2.24,2.44,12.1,1.87,9.26H637.55c-2.46,0-3.53-1.39-3.53-3.53V88c0-1.71.65-3.53,3.53-3.53H686l.24,0Zm36.85,49L692.61,147l-3.36-1.28V79.12L723.1,92Z"/><path class="cls-1" d="M12.74,15.46a28.57,28.57,0,0,0-3.91.19V12a32.7,32.7,0,0,0,3.91.16h4.6c-.57-1.22-1-2.09-1.4-2.82H11.83c-1.86,0-3.3.08-4.52.19V5.77A30.83,30.83,0,0,0,11.64,6h1.22a16,16,0,0,0-2.59-3.53L14.07,1A26.06,26.06,0,0,1,17,6h2.17V3.31a21.86,21.86,0,0,0-.19-3h4.14A24.38,24.38,0,0,0,23,3.15V6h2.7V3.15c0-1.21,0-2.09-.11-2.81h4.14a19.2,19.2,0,0,0-.19,3V6h2.39A20.52,20.52,0,0,0,34.67.91l3.91,1.45C37.67,3.88,37.06,4.83,36.22,6h1.07a29.55,29.55,0,0,0,4.29-.23v3.8c-1.18-.11-2.66-.19-4.52-.19h-3.8c-.72,1.52-.87,1.87-1.41,2.82h4.41A33.43,33.43,0,0,0,40.18,12v3.61a28.28,28.28,0,0,0-3.92-.19H26.35v1.83h7.94a27.77,27.77,0,0,0,3.91-.19v3.42a26.65,26.65,0,0,0-3.91-.19H26.35v1.9H37A33.72,33.72,0,0,0,41.54,22v3.8A41.4,41.4,0,0,0,37,25.57H29.35a19.73,19.73,0,0,0,5.16,3,32.62,32.62,0,0,0,7.91,2.17,15,15,0,0,0-2.17,3.87c-6.38-1.75-10.67-4.06-14.09-7.52a26.87,26.87,0,0,1,.11,2.7v1.86a21.49,21.49,0,0,0,.27,3.83H22.05a28.54,28.54,0,0,0,.23-3.87V29.83c0-.88,0-1,.11-2.59a20.81,20.81,0,0,1-5.47,4.18,36.53,36.53,0,0,1-7.75,3.19A15.35,15.35,0,0,0,6.85,31c5.55-1.18,9.39-2.85,12.43-5.4H12.21a42.44,42.44,0,0,0-4.6.23V22a35.64,35.64,0,0,0,4.56.23H22.24v-1.9H14.72a26.28,26.28,0,0,0-3.88.19V17.1a27.39,27.39,0,0,0,3.88.19h7.52V15.46Zm14.9-3.26a22.45,22.45,0,0,0,1.25-2.82H20.23a24.14,24.14,0,0,1,1.14,2.82Z"/><path class="cls-1" d="M63.59,17.1c-1.64,0-2.85,0-4,.15a37.13,37.13,0,0,0,.19-3.95V5.36a38.51,38.51,0,0,0-.19-4.07,30.25,30.25,0,0,0,4.06.19H84a31.56,31.56,0,0,0,4.1-.19,28.63,28.63,0,0,0-.19,4.07V13.3a27.1,27.1,0,0,0,.19,3.95c-1.21-.11-2.39-.15-4.06-.15H80.72c2.59,2.5,6.31,4.4,11.14,5.66a17,17,0,0,0-2,4.1,35.63,35.63,0,0,1-8.28-4.18v8.44a27.42,27.42,0,0,0,.23,4.18h-4.6a31.88,31.88,0,0,0,.23-4.22V24a20.38,20.38,0,0,0-.19-3h2.2a22,22,0,0,1-3.76-3.91h-4A19.32,19.32,0,0,1,68.19,21H71a14.32,14.32,0,0,0-.15,1.75c-.26,7.07-3.11,10.41-10.83,12.88a15.86,15.86,0,0,0-2.54-3.5c3.61-1,5.36-1.74,6.95-3.15s2.32-3.38,2.32-6.31c0-.07,0-.26,0-.49A29.65,29.65,0,0,1,58,26.86,15.26,15.26,0,0,0,55.87,23c4.87-1.33,8.48-3.31,10.8-5.89Zm.26-9.27h7.87V4.94H63.85Zm0,6.08h7.87V11.06H63.85ZM75.63,7.83h8.21V4.94H75.63Zm0,6.08h8.21V11.06H75.63Z"/><path class="cls-1" d="M119.71,31.19c-3.61.69-3.61.69-7.71,1.29-3,.42-4.37.65-5.32.84l-.87-3.91a3.4,3.4,0,0,0,.6,0c.61,0,1.68-.08,3.27-.19V17.48a26.5,26.5,0,0,0-3.76.19V14a20.71,20.71,0,0,0,3.91.23H136.7a21.26,21.26,0,0,0,4-.23v3.69a29.12,29.12,0,0,0-4-.19H123.47v13.9a19.12,19.12,0,0,0,5.13-2.69,29.7,29.7,0,0,1-3.45-4.83l3.23-1.44h-1a20.19,20.19,0,0,0-2.85.15V19a23.3,23.3,0,0,0,3.19.15h6.38A18.09,18.09,0,0,0,137,19l2,2.16a5.68,5.68,0,0,0-.61,1.1,29.05,29.05,0,0,1-4.33,6.5,22.71,22.71,0,0,0,6.72,2.7,20.34,20.34,0,0,0-1.93,3.72c-4-1.56-5.1-2.12-7.45-3.95a25.87,25.87,0,0,1-5.89,3.69,9.84,9.84,0,0,0-2-3.19,24.46,24.46,0,0,0,.19,3.64h-4.18a21.63,21.63,0,0,0,.23-3.83ZM136.58,9.65a26.66,26.66,0,0,0,.15,3.31c-.87-.08-2.24-.12-3.53-.12H113.9c-1.71,0-2.74,0-3.91.12a27.44,27.44,0,0,0,.15-3.27V4.56A27.73,27.73,0,0,0,110,1.25a38.42,38.42,0,0,0,4,.16h18.7a38.91,38.91,0,0,0,4-.16,26.66,26.66,0,0,0-.15,3.31Zm-16.87,7.83h-6.3v1.71h6.3Zm0,4.48h-6.3v1.82h6.3Zm0,4.6h-6.3v2.35c1.86-.19,2.73-.3,6.3-.83ZM114.05,5.85h18.58V4.33H114.05Zm0,4.18h18.58V8.47H114.05Zm14.52,12.39a15.54,15.54,0,0,0,2.69,4,15.64,15.64,0,0,0,2.81-4Z"/><path class="cls-1" d="M174.66,13.49a26.48,26.48,0,0,0,5.47,10,26.53,26.53,0,0,0,10.49,7.22A15.73,15.73,0,0,0,187.84,35a31,31,0,0,1-9.38-7,28.53,28.53,0,0,1-5.74-9.2,23,23,0,0,1-6.19,10.19,28.16,28.16,0,0,1-9.08,6,15.26,15.26,0,0,0-2.66-4,27.27,27.27,0,0,0,6.15-3.23c5.1-3.61,7.64-7.86,8.55-14.32h-9a29,29,0,0,0-4.75.26V8.93a30,30,0,0,0,4.78.26h9.31c.08-1.9.12-2.5.12-4.48a25.72,25.72,0,0,0-.27-3.8h5a28.45,28.45,0,0,0-.27,4.45c0,1.56,0,2.43-.08,3.83h10.07a31.76,31.76,0,0,0,4.79-.26v4.82a33.93,33.93,0,0,0-4.75-.26Z"/><path class="cls-1" d="M204.53,16.15c.91.07,1.22.07,2.51.07h.61c.72-.91,1-1.33,1.86-2.54a37.15,37.15,0,0,0-5.13-5.55l1.9-3.3c.76.68,1,.91,1.48,1.4a25.9,25.9,0,0,0,3-6.23l3.8,1.44c-.34.54-.49.76-.95,1.6a47,47,0,0,1-3.42,5.77c.72.8.91,1,1.45,1.71,2.88-4.63,3.07-5,3.61-6.45L218.78,6c-.23.31-1.22,1.79-3.8,5.67-.72,1.1-2.47,3.45-3.23,4.4a36.06,36.06,0,0,0,4.48-.34,20.65,20.65,0,0,0-1.33-2.92l2.78-1.33a41.74,41.74,0,0,1,3,7.41l-3,1.48c-.19-.69-.22-.91-.38-1.45-1.55.19-2.58.31-3,.38v12a23.49,23.49,0,0,0,.23,4.06h-4.14a24.33,24.33,0,0,0,.23-4.06V19.57l-1.22.07c-1.33.12-2.2.19-2.54.19a10,10,0,0,0-1.83.23Zm4.9,5.81c-.68,7-.83,7.94-1.75,11.1l-3.3-1.49a34.46,34.46,0,0,0,1.71-10.1ZM221.86,5.43a20.4,20.4,0,0,0-3.16.19V1.44a31.06,31.06,0,0,0,4.41.23h9.38a31.7,31.7,0,0,0,3.61-.15c-.26,1.18-.26,1.18-.76,3.57-.38,1.9-1.06,4.67-1.52,6.27h1.37a13.76,13.76,0,0,0,2.47-.15l1.52,1.63-.26,1c-.12.42-.12.42-.76,3.11-.19.8-1,3.23-1.56,4.75a22.94,22.94,0,0,1-2.55,4.64,26.07,26.07,0,0,0,6.08,4.82,17.46,17.46,0,0,0-2.2,4,33.48,33.48,0,0,1-6.35-5.58,29.07,29.07,0,0,1-7.33,5.62,12.11,12.11,0,0,0-2.55-3.53,22.77,22.77,0,0,0,7.45-5.32,29.91,29.91,0,0,1-3.87-9.81,39,39,0,0,1-2,10,30.45,30.45,0,0,1-4.56,8.77,11,11,0,0,0-3.15-2.81,23.3,23.3,0,0,0,3-4.71l-2.4.8a36,36,0,0,0-1.06-6.84l2.85-.69a49.17,49.17,0,0,1,1.06,5.78A39.48,39.48,0,0,0,221.78,16a76.4,76.4,0,0,0,.57-10.53Zm4.4,0c.61,5.66.8,6.8,1.64,9.65a25.93,25.93,0,0,0,3.64,8.1,24.29,24.29,0,0,0,3.12-8.13h-3.84c-1.06,0-1.25,0-2,0a76.47,76.47,0,0,0,2.47-9.65Z"/><path class="cls-1" d="M270.15,23.33c-2.16,4.9-4.59,7.14-7.71,7.14-4.33,0-7.45-4.41-7.45-10.52a16.36,16.36,0,0,1,4.18-11.06c3.2-3.49,7.68-5.32,13.07-5.32,9.12,0,15.05,5.55,15.05,14.1,0,6.57-3.42,11.81-9.23,14.17a25.13,25.13,0,0,1-6,1.6A12,12,0,0,0,269.77,29c3.5-.46,5.78-1.06,7.57-2.09a10.64,10.64,0,0,0,5.28-9.5A9.4,9.4,0,0,0,277.94,9a8.16,8.16,0,0,0-3.83-1.14A55.23,55.23,0,0,1,270.15,23.33Zm-5.58-13.6A12.72,12.72,0,0,0,259.4,20c0,3.12,1.33,5.59,3,5.59,1.26,0,2.55-1.6,3.92-4.86a50.4,50.4,0,0,0,3.15-12.85A9.62,9.62,0,0,0,264.57,9.73Z"/><path class="cls-2" d="M312.75,13.94a30,30,0,0,1,4.15,3.84,41.12,41.12,0,0,0,2.43-9h-5.55a37.62,37.62,0,0,1-7.3,11.74,10.55,10.55,0,0,0-2.5-3.65,30.53,30.53,0,0,0,6.95-11.82,29.18,29.18,0,0,0,1.1-5l4.37.76a22.71,22.71,0,0,0-.68,2.2c-.27.87-.42,1.41-.65,2.13h5.47c1.45,0,2.17,0,3.08-.12-.15.8-.15,1-.34,2.59A18.53,18.53,0,0,0,327,13.15V4.71a28.7,28.7,0,0,0-.26-4.37h4.67a24,24,0,0,0-.27,4.37V17.06a36.16,36.16,0,0,0,3.61,2.32,25.15,25.15,0,0,0,5.13,2.54,21.33,21.33,0,0,0-2.2,4.14,41.35,41.35,0,0,1-6.54-4v8.2a38.35,38.35,0,0,0,.27,5.06h-4.67a39.66,39.66,0,0,0,.26-5.06V18.54A25.53,25.53,0,0,1,322.44,13a36.28,36.28,0,0,1-5.13,12.69,37.9,37.9,0,0,1-9.5,9.5,12.33,12.33,0,0,0-3-3.46,22.84,22.84,0,0,0,4.49-3.34,26.13,26.13,0,0,0,5.77-7,28.27,28.27,0,0,0-4.6-4.45Z"/><path class="cls-2" d="M368.61,23.82a12.1,12.1,0,0,0-.15-2.13c-1.14,0-1.14,0-2,0h-4.55c-1.49,0-2.25,0-3.31.11.08-.95.11-1.56.11-3.19V14a18.87,18.87,0,0,1-3.3,7.67,10.6,10.6,0,0,0-2.74-3.26c2.28-2.85,3.19-7,3.19-14.33a18.74,18.74,0,0,0-.15-2.92c.8.07,1.83.11,3.38.11h7.11c1.44,0,2.54,0,3.3-.11a19,19,0,0,0-.15,2.92V7.6a25.44,25.44,0,0,0,.08,2.89c-.46,0-1.56-.08-2.89-.08h-7.33c-.15,1.33-.15,1.33-.23,2.09a16.72,16.72,0,0,0,2.2.08h5a17.85,17.85,0,0,0,3.23-.16,27.89,27.89,0,0,0-.08,3v3.39a20,20,0,0,0,.08,2.65h3.42a8.3,8.3,0,0,0-.23,2.32v.42h7.87a20.21,20.21,0,0,0,3.91-.23v3.76a28.84,28.84,0,0,0-3.91-.19H372.6v3H383a30.92,30.92,0,0,0,4.37-.19v4a41.43,41.43,0,0,0-4.67-.22H358.24a41.85,41.85,0,0,0-4.64.22v-4a41,41,0,0,0,4.41.19h10.6v-3h-7.82a29,29,0,0,0-3.92.19V24a20.27,20.27,0,0,0,3.92.23h7.82Zm-3-16.49V4.48h-6V5.4a11.74,11.74,0,0,1-.12,1.93Zm-3.76,11.29H366V15.5h-4.06Zm14.7-16.23A11.85,11.85,0,0,0,376.4.15h4.22a8.61,8.61,0,0,0-.19,2.28v.38h2.92a27.59,27.59,0,0,0,3.5-.19V6.27a13.64,13.64,0,0,0-2.24-.15,24.37,24.37,0,0,1-1.48,3.8h1.48a17.46,17.46,0,0,0,3.11-.19v3.64a26.09,26.09,0,0,0-3.26-.15h-4v2.62h3.3a17.76,17.76,0,0,0,2.85-.15V19.3a15.79,15.79,0,0,0-2.92-.19h-3.23v.38a18.75,18.75,0,0,0,.22,3.31h-4.25a20.7,20.7,0,0,0,.19-3.31v-.38h-2.78a18,18,0,0,0-2.92.19V15.69a20.23,20.23,0,0,0,3,.15h2.7V13.22h-3.42a26.16,26.16,0,0,0-3.15.15V9.76a18.44,18.44,0,0,0,3,.16h1a19.48,19.48,0,0,0-1.56-3.8,10.58,10.58,0,0,0-1.86.15V2.62a26.4,26.4,0,0,0,3.45.19h2.51Zm3.08,7.53a16.89,16.89,0,0,0,1.21-3.8h-4.71a23.34,23.34,0,0,1,1.33,3.8Z"/><path class="cls-2" d="M404.64,6.92a30.53,30.53,0,0,1,5.66,3.41L408,13.6A30.22,30.22,0,0,0,402.36,10Zm7.82,8.35a52.86,52.86,0,0,1-6,6.2,25.63,25.63,0,0,0-1.86,1.78l-2.21-3.76a28.06,28.06,0,0,0,7.83-6.72Zm8-4.9a20.71,20.71,0,0,0-3.23.19V8.62a37.62,37.62,0,0,1-4.79,2.32,14.94,14.94,0,0,0-1.86-3.53,22.51,22.51,0,0,0,6.57-3.12,17.88,17.88,0,0,0,4.6-4h4.18a25.23,25.23,0,0,0,12,6.68l-.42.69a20.94,20.94,0,0,0-1.64,3.15,33.79,33.79,0,0,1-4.67-2.2v1.93a26.87,26.87,0,0,0-3.19-.15h-1.86v1.71h5.54a27.63,27.63,0,0,0,3.77-.19v3.73a23.15,23.15,0,0,0-3.54-.19h-5.77v3.64c0,1.75-.34,2.62-1.3,3.08a6.76,6.76,0,0,1-3,.46c0,.49-.08.95-.08,1.55v.42h8.09a31.87,31.87,0,0,0,4.33-.19v3.76c-1.21-.11-2.31-.15-4.25-.15h-8.17v2.59h10.83a42.57,42.57,0,0,0,4.41-.19v4a42.32,42.32,0,0,0-4.75-.23H407.49a40.86,40.86,0,0,0-4.68.23v-4a41.57,41.57,0,0,0,4.41.19h10.34V28h-7.22c-1.6,0-2.78,0-4.52.15v-3.8a30.57,30.57,0,0,0,4.52.23h7.22V24.2a8.49,8.49,0,0,0-.19-2.2h2a8,8,0,0,0-.95-2.7,22.25,22.25,0,0,0,2.51.19c1.1,0,1.29-.11,1.29-.91V15.43h-5.78a27.85,27.85,0,0,0-3.34.15V11.89a36.35,36.35,0,0,0,3.84.19h5.28V10.37ZM406.69.15A32.7,32.7,0,0,1,412.84,4l-2.58,3.23a24.34,24.34,0,0,0-5.89-4Zm12.84,17.1a23.14,23.14,0,0,1-6.3,5.77,16.15,16.15,0,0,0-2.67-2.62,15.1,15.1,0,0,0,5.82-4.86Zm9.2-10.07a26.5,26.5,0,0,1-4.79-4,24.78,24.78,0,0,1-4.45,4h9.24Zm1.9,8.36a16.64,16.64,0,0,0,7,4.33A38.13,38.13,0,0,0,435.3,23a23.54,23.54,0,0,1-7.52-5.36Z"/><path class="cls-2" d="M468.25,22.38c-.72.68-1.18,1.06-2.28,2v6.12c2.51-.45,5.32-1.1,6.88-1.56v3.65a115.35,115.35,0,0,1-15.47,2.85l-.76-4h1.6c.72,0,2.2-.11,3.8-.3v-4A50.06,50.06,0,0,1,453.54,31a15.52,15.52,0,0,0-2.12-3.61,35.82,35.82,0,0,0,11.85-5h-7a32.23,32.23,0,0,0-4.14.19v-4a33.72,33.72,0,0,0,4.29.19h10.87v-.61a13.19,13.19,0,0,0-.15-2.2h4.37a11.87,11.87,0,0,0-.15,2.24v.57h10.82a35.26,35.26,0,0,0,4.11-.19v4a32.71,32.71,0,0,0-4.14-.19h-9.05A11.89,11.89,0,0,0,476,26a19.21,19.21,0,0,0,4.06-3.46l3.5,1.9A43.74,43.74,0,0,1,478.92,28a28.59,28.59,0,0,0,8.48,3.27,14.83,14.83,0,0,0-2.21,4c-5.16-1.74-8.58-3.6-11.62-6.34a16,16,0,0,1-4.52-6.61Zm-8.06-9.46a54.93,54.93,0,0,1-5.09,2.16c-1.14.42-1.29.46-2.13.8L451.68,12a39.11,39.11,0,0,0,8.51-2.7V3.53A19.28,19.28,0,0,0,460,.34h4.36a17,17,0,0,0-.18,3.19v10A21.27,21.27,0,0,0,464.3,17H460a21.87,21.87,0,0,0,.22-3.46ZM455.06,1.29a33.39,33.39,0,0,1,4.56,4.94l-2.88,2.62a24.82,24.82,0,0,0-4.56-5.16ZM469.2,7.75a26.07,26.07,0,0,0-3.76.19V4a25.48,25.48,0,0,0,3.76.19H473V3.34a13,13,0,0,0-.23-3h4.52a15.12,15.12,0,0,0-.19,2.93v.95h5.32a26.17,26.17,0,0,0,3.8-.19V7.94a25.25,25.25,0,0,0-3.8-.19h-5.32v3.76h4.14a21.88,21.88,0,0,0,3.57-.19v3.92a18.86,18.86,0,0,0-3.46-.19H470a31.35,31.35,0,0,0-3.73.19V11.36a28.84,28.84,0,0,0,3.5.15H473V7.75Z"/><path class="cls-2" d="M505.72,6.42a29.93,29.93,0,0,0-4,.23V2.77a27,27,0,0,0,4.1.23h10.45A15,15,0,0,0,516,.11h4.45A16.76,16.76,0,0,0,520.23,3H531.4a23.41,23.41,0,0,0,4.07-.23V6.65a29.71,29.71,0,0,0-4-.23H520.23V8.21h8.47a26.82,26.82,0,0,0,3.61-.16,26.32,26.32,0,0,0-.15,3v7.49a26.32,26.32,0,0,0,.15,3,30.68,30.68,0,0,0-3.8-.15v1.78h2.93a23.41,23.41,0,0,0,4.07-.23v3.92a34.26,34.26,0,0,0-4-.23h-3v4.94a2.7,2.7,0,0,1-1.17,2.66c-.88.57-2.21.76-4.94.76-.53,0-1.37,0-2.62-.08a15.64,15.64,0,0,0-1.14-3.87,29.37,29.37,0,0,0,4.25.3c1.41,0,1.63-.11,1.63-.87V26.71h-18.8a34.32,34.32,0,0,0-4,.23V23a27,27,0,0,0,4.1.23h18.73V21.47H508.45a28.93,28.93,0,0,0-3.61.15,25.46,25.46,0,0,0,.16-3V11.09a25,25,0,0,0-.16-3,27,27,0,0,0,3.61.16h7.79V6.42Zm8,27.93a22.36,22.36,0,0,0-5.32-5l3-2.43A21.76,21.76,0,0,1,517,31.61Zm-4.82-23v2h7.29v-2Zm0,4.86v2.09h7.29V16.22Zm11.28-2.88h7.94v-2h-7.94Zm0,5h7.94V16.22h-7.94Z"/><path class="cls-2" d="M556.14,30.43a33.73,33.73,0,0,0,.23,4.68h-4.48a37.09,37.09,0,0,0,.23-4.71V5.51A40.27,40.27,0,0,0,552,1.22a35,35,0,0,0,3.88.15h6.72a33.16,33.16,0,0,0,3.88-.15c-.08,1.06-.11,2.05-.11,3.53V12.2a33,33,0,0,0,.11,3.38c-.91,0-2.17-.08-3.5-.08h-6.8Zm0-23.33h6.46V4.67h-6.46Zm0,5.36h6.46V10.07h-6.46ZM583.65,30.4c0,3.64-1,4.33-6.5,4.33-.68,0-1.55,0-3.11-.08a13.82,13.82,0,0,0-1-4.14,40.62,40.62,0,0,0,5.13.34c1.18,0,1.45-.15,1.45-1V15.54h-7.15c-1.36,0-2.69,0-3.49.11.07-.87.11-1.82.11-3.45V4.75c0-1.29,0-2.36-.11-3.53a33.87,33.87,0,0,0,3.87.15h7.07a36.31,36.31,0,0,0,4-.15,34.11,34.11,0,0,0-.19,4.25ZM572.86,7.1h6.73V4.67h-6.73Zm0,5.36h6.73V10.07h-6.73Z"/><path class="cls-2" d="M622.07,8.78l0-1.71V5.85a24.49,24.49,0,0,0-.19-4.22h4.9a14.57,14.57,0,0,0-.15,2.55c0,2.32,0,2.32,0,4.6h2.43A26.68,26.68,0,0,0,634,8.51v4.64a37.07,37.07,0,0,0-4.86-.19h-2.55a45.58,45.58,0,0,1-.26,6.27c-.53,4.86-2.17,8.09-5.47,10.9a21.15,21.15,0,0,1-7.41,4,11.25,11.25,0,0,0-2.85-4c3.61-1.1,5.43-2,7.25-3.61,2.59-2.24,3.69-4.75,4-9.12.08-.87.08-1.78.15-4.4h-9.84v5.7a22.27,22.27,0,0,0,.16,3.19h-4.94a26,26,0,0,0,.15-3.27V13h-2.32a37.07,37.07,0,0,0-4.86.19V8.51a26.68,26.68,0,0,0,4.94.27h2.24V5a20.36,20.36,0,0,0-.19-3.38h5a18,18,0,0,0-.16,3.26V8.78Z"/><path class="cls-2" d="M680.13,4.37a16.11,16.11,0,0,0-1.4,1.33,67.83,67.83,0,0,1-9,7.83V29.75A29.1,29.1,0,0,0,670,34h-5.32a21.4,21.4,0,0,0,.23-4.11V16.49c-4.45,2.66-6.57,3.65-13.56,6.15a14.41,14.41,0,0,0-2.55-4.33,55.38,55.38,0,0,0,20-9.88c3.38-2.62,6-5.24,7.06-7.1Z"/><path class="cls-2" d="M701.57,33.89a25.47,25.47,0,0,0,.23-4.25V5.28a24.5,24.5,0,0,0-.23-3.87h5.2a25.78,25.78,0,0,0-.15,4v7.06a112,112,0,0,1,17.25,8L721.21,25a89.56,89.56,0,0,0-13.45-7.25,12.25,12.25,0,0,1-1.29-.65,20.29,20.29,0,0,1,.15,2.58v10c0,2,0,3,.15,4.22Z"/></g></g></svg>