<svg version="1.2" xmlns="http://www.w3.org/2000/svg" viewBox="0 0 46 46" width="46" height="46"><style>.a{fill:#fff}</style><path class="a" d="m0.1 11.1c0.1-5.2 1.9-7.4 6.1-9.7 1.3-0.7 2.8-0.3 3.9 0.7 2.5 2.3 4.5 5 6.1 7.9 0.9 1.7 0.8 3.4-0.3 4.9-0.7 1-1.5 1.8-2.3 2.6-1.1 1.3-1.3 2.6-0.3 4q4.3 6.3 10.6 10.7c1.4 1 2.8 0.8 4-0.3 0.8-0.8 1.6-1.5 2.4-2.1 1.7-1.3 3.6-1.4 5.4-0.4 2.7 1.6 5.2 3.5 7.4 5.7 1.4 1.4 1.6 3.2 0.6 4.9-1.8 2.9-4 5.1-7.5 5.2-2 0.1-4-0.1-5.9-0.5-5.2-1.2-9.6-3.9-13.7-7.2-6.1-4.8-11.1-10.6-14.3-17.8-1.3-2.9-2.1-5.9-2.2-8.6z"/></svg>