<svg id="tel" xmlns="http://www.w3.org/2000/svg" width="387.25" height="22.125" viewBox="0 0 387.25 22.125">
  <defs>
    <style>
      .cls-1 {
        fill: #444;
      }

      .cls-1, .cls-2 {
        fill-rule: evenodd;
      }

      .cls-2 {
        fill: #12a73b;
      }
    </style>
  </defs>
  <path id="_24時間受付中_年中無休_" data-name="24時間受付中（年中無休）" class="cls-1" d="M1134.04,29.957h5.7V28.782h-2.21c-0.43,0-.98.036-1.44,0.084,1.88-1.787,3.23-3.55,3.23-5.253a2.494,2.494,0,0,0-2.66-2.651,3.48,3.48,0,0,0-2.69,1.319l0.78,0.768a2.392,2.392,0,0,1,1.74-.983,1.441,1.441,0,0,1,1.5,1.619c0,1.451-1.34,3.166-3.95,5.469v0.8Zm8.61-3.442,1.74-2.663c0.25-.456.49-0.912,0.7-1.355h0.05c-0.02.48-.07,1.223-0.07,1.7v2.315h-2.42Zm4.84,0h-1.13V21.13h-1.59l-3.51,5.529v0.924h3.81v2.375h1.29V27.582h1.13V26.515Zm4.71-4.857v2.411h-1.44V21.657h1.44Zm-1.44,5.925V25.052h1.44v2.531h-1.44Zm2.5-6.932h-3.53v8.935h1.03V28.578h2.5V20.65Zm0.86,6.872a8.7,8.7,0,0,1,1.45,2.051l0.95-.576a8.6,8.6,0,0,0-1.5-1.991Zm6.23-3V23.54h-2.92V22.221h2.47V21.25h-2.47V19.882h-1.11V21.25h-2.4v0.971h2.4V23.54h-2.86v0.984h4.4v1.2h-4.36v0.984h4.36v2.926c0,0.168-.06.216-0.25,0.228s-0.84,0-1.51-.024a4.073,4.073,0,0,1,.36,1.043,5.9,5.9,0,0,0,1.97-.18,0.948,0.948,0,0,0,.53-1.043v-2.95h1.28V25.723h-1.28v-1.2h1.39Zm5.82-3.31v0.828h-2.27V21.214h2.27Zm-2.27,2.507V22.833h2.27V23.72h-2.27Zm3.33,0.828V20.374h-4.43V30.9h1.1V24.548h3.33Zm2.01-.8V22.833h2.34v0.912h-2.34Zm2.34-2.531v0.828h-2.34V21.214h2.34Zm-5.11,7.748v-1h2.44v1h-2.44Zm2.44-2.747V27.15h-2.44V26.215h2.44Zm3.8-5.841h-4.54v4.2h3.41V29.5c0,0.2-.06.264-0.28,0.276-0.19,0-.76.012-1.35-0.012v-4.39h-4.5V30.4h1.02V29.8h3.24a5.35,5.35,0,0,1,.35,1.091,6.051,6.051,0,0,0,2.08-.192,1.081,1.081,0,0,0,.57-1.187V20.374Zm11.58-.54a61.727,61.727,0,0,1-8.79.864,3.7,3.7,0,0,1,.24.947,64.968,64.968,0,0,0,9.33-.9Zm-7.87,4.462h8.12v1.5h1.09V23.313h-1.88c0.33-.48.68-1.079,0.99-1.619l-1.16-.312a13.142,13.142,0,0,1-.96,1.931h-2.39l1.01-.252a6.89,6.89,0,0,0-.6-1.655l-0.99.216a6.92,6.92,0,0,1,.54,1.691h-2.6l0.65-.2a6.078,6.078,0,0,0-.77-1.5l-0.97.276a8.156,8.156,0,0,1,.69,1.427h-1.81V25.8h1.04V24.3Zm6.09,2.183a5.953,5.953,0,0,1-1.99,1.763,6.7,6.7,0,0,1-2.1-1.763h4.09Zm0.93-1.067-0.21.036h-6.3v1.031h0.52l-0.22.1a8.155,8.155,0,0,0,2.19,2.207,16.366,16.366,0,0,1-4.31,1.055,3.568,3.568,0,0,1,.65,1.007,16.881,16.881,0,0,0,4.74-1.4,14.743,14.743,0,0,0,4.67,1.391,5.005,5.005,0,0,1,.69-1.055,15.7,15.7,0,0,1-4.22-1,7.275,7.275,0,0,0,2.55-2.914Zm7.41-5.445a12.961,12.961,0,0,1-2.97,4.713,7.368,7.368,0,0,1,.68,1.139,10.321,10.321,0,0,0,1.05-1.235v6.3h1.13V22.845a19.026,19.026,0,0,0,1.21-2.531Zm8.03,2.543h-1.42V20.026h-1.16v2.483h-4.69v1.115h4.69v5.853a0.313,0.313,0,0,1-.38.36c-0.29.012-1.28,0.024-2.25-.024a4.9,4.9,0,0,1,.43,1.115,9.07,9.07,0,0,0,2.65-.192,1.069,1.069,0,0,0,.71-1.259V23.624h1.42V22.509Zm-3.92,5.037c-0.36-.72-1.14-1.931-1.71-2.83l-0.98.456a30.406,30.406,0,0,1,1.65,2.938Zm11.75-1.559v-2.9h3.12v2.9h-3.12Zm-4.27,0v-2.9h3.11v2.9h-3.11Zm4.27-3.994V19.906h-1.16v2.087h-4.22v5.793h1.11V27.078h3.11v3.814h1.16V27.078h3.12v0.648H1211V21.993h-4.29Zm12.92,9.139,0.92-.432a7.463,7.463,0,0,1,0-10.6l-0.92-.432A8.119,8.119,0,0,0,1219.63,31.132Zm5.33-3.958V25.052h2.41v2.123h-2.41Zm7.77,0h-4.21V25.052h3.35V24.008h-3.35V22.353h3.62V21.274h-6.94c0.15-.36.32-0.756,0.47-1.127l-1.13-.3a9.633,9.633,0,0,1-2.62,4.066,9.015,9.015,0,0,1,.98.72,10.754,10.754,0,0,0,1.72-2.279h2.75v1.655h-3.53v3.166h-1.93v1.079h5.46V30.9h1.15V28.254h4.21V27.174Zm7.86-1.187v-2.9h3.11v2.9h-3.11Zm-4.27,0v-2.9h3.1v2.9h-3.1Zm4.27-3.994V19.906h-1.17v2.087h-4.22v5.793h1.12V27.078h3.1v3.814h1.17V27.078h3.11v0.648h1.17V21.993h-4.28Zm14.88,2h-1.18V22.2h1.18V24Zm0,2.807h-1.18V25h1.18v1.8Zm-5.34-1.8h1.11v1.8h-1.11V25Zm3.21,0v1.8h-1.16V25h1.16ZM1252.18,24V22.2h1.16V24h-1.16Zm-2.05-1.8h1.11V24h-1.11V22.2Zm-1.01,1.8h-1.63V25h1.63v1.8h-1.45V27.81h10.3V26.8h-1.45V25h1.62V24h-1.62V22.2h1.17V21.214h-7.37a8.081,8.081,0,0,0,.57-1.007l-1.09-.312a8.045,8.045,0,0,1-2.52,3,7.517,7.517,0,0,1,.93.732,10.059,10.059,0,0,0,.91-0.864V24Zm-0.69,6.92a6.234,6.234,0,0,0,1.44-2.447l-1.08-.264a5.245,5.245,0,0,1-1.41,2.267Zm2.46-2.363a12.651,12.651,0,0,1,.24,2.231l1.09-.156a12.683,12.683,0,0,0-.3-2.183Zm2.4,0.012a11.306,11.306,0,0,1,.67,2.231l1.11-.216a11.356,11.356,0,0,0-.73-2.183Zm2.39-.072a15.56,15.56,0,0,1,1.51,2.423l1.13-.4a14.7,14.7,0,0,0-1.59-2.363Zm7.67-8.527a12.426,12.426,0,0,1-3.16,4.689,7,7,0,0,1,.66,1.151,11.789,11.789,0,0,0,1.23-1.355v6.417h1.1V22.857a18.382,18.382,0,0,0,1.27-2.543Zm7.96,3.982V22.857h-3.3V20.074h-1.1v2.782h-3.2v1.091h2.7a11.553,11.553,0,0,1-3.19,4.666,5.3,5.3,0,0,1,.82.887,12.938,12.938,0,0,0,2.87-4.15V30.9h1.1V25.052a13.629,13.629,0,0,0,2.8,4.378,4.127,4.127,0,0,1,.84-0.9,12.112,12.112,0,0,1-3.06-4.581h2.72Zm2.55-4.282-0.91.432a7.463,7.463,0,0,1,0,10.6l0.91,0.432A8.095,8.095,0,0,0,1273.86,19.667Z" transform="translate(-889 -14.875)"/>
  <path id="_0120-945-990" data-name="0120-945-990" class="cls-1" d="M953.355,29.357v-7.53c0-5.31-3.42-6.87-7.44-6.87s-7.439,1.56-7.439,6.9v7.5c0,5.04,3.419,6.9,7.439,6.9S953.355,34.4,953.355,29.357Zm-9.93-6.93c0-2.22.6-3.33,2.49-3.33,1.86,0,2.46,1.11,2.46,3.33v6.36c0,2.22-.6,3.33-2.46,3.33-1.89,0-2.49-1.11-2.49-3.33v-6.36Zm21.381-7.17h-4.38l-3.57,2.28v4.62l2.97-1.83V35.957h4.98v-20.7Zm17.646,16.559h-6.33l3.54-4.08c1.35-1.56,3.15-3.75,3.15-6.6,0-3.39-2.91-6.18-6.84-6.18-3.75,0-6.78,2.61-6.78,6.21h4.29a2.093,2.093,0,0,1,2.19-2.13,2.028,2.028,0,0,1,2.19,2.13,5.8,5.8,0,0,1-1.71,3.9l-6.75,7.95v2.94h13.05v-4.14Zm17.708-2.46v-7.53c0-5.31-3.422-6.87-7.442-6.87s-7.44,1.56-7.44,6.9v7.5c0,5.04,3.42,6.9,7.44,6.9S1000.16,34.4,1000.16,29.357Zm-9.932-6.93c0-2.22.6-3.33,2.49-3.33,1.86,0,2.46,1.11,2.46,3.33v6.36c0,2.22-.6,3.33-2.46,3.33-1.89,0-2.49-1.11-2.49-3.33v-6.36Zm12.572,6.84h7.77v-3.96h-7.77v3.96Zm12.82,6.69h5.28l4.14-7.62c1.53-2.76,2.13-4.77,2.13-6.48,0-5.04-3.42-6.9-7.47-6.9-3.99,0-7.41,1.86-7.41,6.9a5.962,5.962,0,0,0,5.79,6.24,5.041,5.041,0,0,0,2.04-.36Zm6.57-14.369a2.257,2.257,0,0,1-2.49,2.49,2.226,2.226,0,0,1-2.43-2.49,2.226,2.226,0,0,1,2.43-2.49A2.257,2.257,0,0,1,1022.19,21.587Zm12.41-6.33-6.99,14.549V33.2h9.27v2.76h4.98V33.2h1.89v-4.14h-1.89v-4.89h-4.98v4.89h-2.97l6.24-13.8h-5.55ZM1052.95,25.7c1.29,0,1.86,1.05,1.86,3.24,0,2.07-.69,3.18-1.86,3.18a1.953,1.953,0,0,1-2.07-1.71h-4.92c0.39,4.02,3.54,5.85,7.14,5.85,4.44,0,6.69-2.37,6.69-7.62,0-5.1-2.46-7.32-5.31-7.32a4.415,4.415,0,0,0-2.94.96v-2.64h7.5v-4.38h-12.39v11.97h4.47A1.916,1.916,0,0,1,1052.95,25.7Zm9.66,3.57h7.77v-3.96h-7.77v3.96Zm12.81,6.69h5.28l4.14-7.62c1.53-2.76,2.13-4.77,2.13-6.48,0-5.04-3.42-6.9-7.47-6.9-3.99,0-7.41,1.86-7.41,6.9a5.962,5.962,0,0,0,5.79,6.24,5.041,5.041,0,0,0,2.04-.36Zm6.57-14.369a2.257,2.257,0,0,1-2.49,2.49,2.226,2.226,0,0,1-2.43-2.49,2.226,2.226,0,0,1,2.43-2.49A2.257,2.257,0,0,1,1081.99,21.587Zm10.45,14.369h5.28l4.14-7.62c1.53-2.76,2.13-4.77,2.13-6.48,0-5.04-3.42-6.9-7.47-6.9-3.99,0-7.41,1.86-7.41,6.9a5.962,5.962,0,0,0,5.79,6.24,5.041,5.041,0,0,0,2.04-.36Zm6.57-14.369a2.257,2.257,0,0,1-2.49,2.49,2.226,2.226,0,0,1-2.43-2.49,2.226,2.226,0,0,1,2.43-2.49A2.257,2.257,0,0,1,1099.01,21.587Zm21.99,7.77v-7.53c0-5.31-3.42-6.87-7.44-6.87s-7.44,1.56-7.44,6.9v7.5c0,5.04,3.42,6.9,7.44,6.9S1121,34.4,1121,29.357Zm-9.93-6.93c0-2.22.6-3.33,2.49-3.33,1.86,0,2.46,1.11,2.46,3.33v6.36c0,2.22-.6,3.33-2.46,3.33-1.89,0-2.49-1.11-2.49-3.33v-6.36Z" transform="translate(-889 -14.875)"/>
  <path id="シェイプ_1" data-name="シェイプ 1" class="cls-2" d="M923.285,34.906a2.08,2.08,0,1,0,2.079-2.092,2.088,2.088,0,0,0-2.079,2.092m0.241,0a1.839,1.839,0,1,1,1.838,1.849A1.846,1.846,0,0,1,923.526,34.907Zm2.851,1.353h-0.4L925.17,35h-0.354V36.26H924.5V33.5h0.778a0.927,0.927,0,0,1,.618.191,0.655,0.655,0,0,1,.228.532,0.684,0.684,0,0,1-.165.451,0.853,0.853,0,0,1-.457.267l0.879,1.324m-1.561-1.536h0.4a0.6,0.6,0,0,0,.412-0.138,0.445,0.445,0,0,0,.158-0.348,0.458,0.458,0,0,0-.562-0.462h-0.411v0.949ZM909.9,27.474a4.1,4.1,0,1,0,8.183,0c0-2.248-2.211-4.045-4.091-5.118C912.116,23.429,909.9,25.225,909.9,27.474Zm-16.636.048a4.1,4.1,0,1,0,8.186,0c0-2.248-2.214-4.043-4.093-5.118C895.482,23.479,893.268,25.274,893.268,27.522ZM889,14.873V36.725h33.289V14.873H889Zm33.284,5.314a16.759,16.759,0,0,0-6.335,1.208c2.057,1.383,4.046,3.48,4.046,6.126a6.2,6.2,0,0,1-6.126,6.169,6.118,6.118,0,0,1-6.028-6.169c0-2.646,1.891-4.742,3.947-6.126a16.251,16.251,0,0,0-12.3,0c2.057,1.383,3.947,3.48,3.947,6.126a6.118,6.118,0,0,1-6.028,6.169,6.239,6.239,0,0,1-6.172-6.169c0-2.646,2.035-4.742,4.092-6.126A16.726,16.726,0,0,0,889,20.187V18.273a18.645,18.645,0,0,1,8.409,1.912,18.663,18.663,0,0,1,16.459,0,18.669,18.669,0,0,1,8.415-1.912v1.913Z" transform="translate(-889 -14.875)"/>
</svg>
